HIERARCHY
ROOT SimulationBone
{
	OFFSET 0.000000 0.000000 0.000000
	CHANNELS 6 Xposition Yposition Zposition Zrotation Yrotation Xrotation 
	JOINT Hips
	{
		OFFSET 0.000000 0.000000 0.000000
		CHANNELS 6 Xposition Yposition Zposition Zrotation Yrotation Xrotation 
		JOINT RightUpLeg
		{
			OFFSET 0.103462 1.857825 10.548491
			CHANNELS 3 Zrotation Yrotation Xrotation
			JOINT RightLeg
			{
				OFFSET 43.500000 -0.000038 -0.000006
				CHANNELS 3 Zrotation Yrotation Xrotation
				JOINT RightFoot
				{
					OFFSET 42.372196 0.000034 -0.000012
					CHANNELS 3 Zrotation Yrotation Xrotation
					JOINT RightToe
					{
						OFFSET 17.299999 -0.000001 -0.000008
						CHANNELS 3 Zrotation Yrotation Xrotation
						End Site
						{
							OFFSET 0.000000 0.000000 0.000000
						}
					}
				}
			}
		}
		JOINT LeftUpLeg
		{
			OFFSET 0.103456 1.857821 -10.548490
			CHANNELS 3 Zrotation Yrotation Xrotation
			JOINT LeftLeg
			{
				OFFSET 43.500038 -0.000011 0.000011
				CHANNELS 3 Zrotation Yrotation Xrotation
				JOINT LeftFoot
				{
					OFFSET 42.372265 0.000004 0.000029
					CHANNELS 3 Zrotation Yrotation Xrotation
					JOINT LeftToe
					{
						OFFSET 17.299988 -0.000007 0.000004
						CHANNELS 3 Zrotation Yrotation Xrotation
						End Site
						{
							OFFSET 0.000000 0.000000 0.000000
						}
					}
				}
			}
		}
		JOINT Spine
		{
			OFFSET 6.901963 -2.603729 -0.000012
			CHANNELS 3 Zrotation Yrotation Xrotation
			JOINT Spine1
			{
				OFFSET 12.588106 0.000010 0.000003
				CHANNELS 3 Zrotation Yrotation Xrotation
				JOINT Spine2
				{
					OFFSET 12.343199 -0.000001 -0.000002
					CHANNELS 3 Zrotation Yrotation Xrotation
					JOINT Neck
					{
						OFFSET 25.832895 -0.000006 0.000023
						CHANNELS 3 Zrotation Yrotation Xrotation
						JOINT Head
						{
							OFFSET 11.766605 0.000011 -0.000027
							CHANNELS 3 Zrotation Yrotation Xrotation
							End Site
							{
								OFFSET 0.000000 0.000000 0.000000
							}
						}
					}
					JOINT RightShoulder
					{
						OFFSET 19.745903 -1.480368 6.000127
						CHANNELS 3 Zrotation Yrotation Xrotation
						JOINT RightArm
						{
							OFFSET 11.284108 0.000010 -0.000010
							CHANNELS 3 Zrotation Yrotation Xrotation
							JOINT RightForeArm
							{
								OFFSET 33.000069 0.000000 0.000030
								CHANNELS 3 Zrotation Yrotation Xrotation
								JOINT RightHand
								{
									OFFSET 25.199997 0.000019 0.000001
									CHANNELS 3 Zrotation Yrotation Xrotation
									End Site
									{
										OFFSET 0.000000 0.000000 0.000000
									}
								}
							}
						}
					}
					JOINT LeftShoulder
					{
						OFFSET 19.746101 -1.480371 -6.000072
						CHANNELS 3 Zrotation Yrotation Xrotation
						JOINT LeftArm
						{
							OFFSET 11.284140 -0.000007 -0.000004
							CHANNELS 3 Zrotation Yrotation Xrotation
							JOINT LeftForeArm
							{
								OFFSET 33.000080 0.000016 -0.000002
								CHANNELS 3 Zrotation Yrotation Xrotation
								JOINT LeftHand
								{
									OFFSET 25.199766 0.000146 0.000422
									CHANNELS 3 Zrotation Yrotation Xrotation
									End Site
									{
										OFFSET 0.000000 0.000000 0.000000
									}
								}
							}
						}
					}
				}
			}
		}
	}
}
MOTION
Frames: 6
Frame Time: 0.016667
-262.866076 0.000000 -444.399305 180.000000 -89.859880 180.000000 -1.538212 87.787956 0.857985 95.286300 4.123650 -178.434835 153.653587 -7.794408 176.660930 -5.731106 -5.993650 -2.203252 69.846196 -0.704877 -7.398975 21.454558 0.003106 0.000018 -167.184453 -10.467904 173.347360 -17.206063 4.732259 2.233009 88.494177 -3.304401 -9.902582 21.454557 -0.003091 -0.000002 10.638311 1.666373 0.594107 11.287627 3.266766 1.348653 10.969064 3.274720 1.328878 7.905887 5.926127 6.698728 -9.446450 -16.684317 12.409834 -167.809906 -72.394523 -13.917698 -13.384037 61.652086 15.177113 -42.313929 -17.901699 1.738411 6.688631 -6.392057 15.243194 164.235954 78.738210 -14.486588 -49.572870 -44.844798 10.418148 -55.698713 17.528535 -2.113336 1.830769 7.804686 -43.709607 
-262.768733 0.000000 -442.441009 180.000000 -89.430865 180.000000 -1.499612 87.402369 0.817818 95.443495 3.738322 -177.845062 153.242429 -6.471960 175.748938 -6.105374 -5.822294 -2.711000 71.006662 -0.135370 -7.020425 21.454557 0.003111 0.000018 -165.914492 -10.162828 173.515469 -17.678300 4.648566 2.244241 89.349641 -3.212231 -9.768884 21.454555 -0.003090 0.000001 10.638281 1.558501 0.588043 11.285416 3.052158 1.325905 10.966917 3.059974 1.307429 7.834637 6.132569 6.704784 -9.362095 -16.454565 12.359003 -168.479584 -72.545563 -13.229248 -13.919872 61.364385 14.718982 -41.643010 -17.780195 1.711589 6.907320 -6.350225 15.381848 163.954691 78.703207 -14.773822 -49.219962 -44.829210 10.839917 -55.870242 17.632492 -2.126575 1.896084 7.866738 -43.372588 
-262.702039 0.000000 -440.464334 180.000000 -89.048399 180.000000 -1.482578 87.038773 0.764979 95.569099 3.265856 -177.323283 152.862843 -4.963292 174.782246 -7.771787 -5.111802 -3.675175 71.179340 0.814828 -6.247377 21.454558 0.003113 0.000017 -164.776114 -9.796198 173.712488 -18.327122 4.562678 2.284537 89.919938 -3.168918 -9.644105 21.454553 -0.003090 0.000003 10.625401 1.416895 0.586438 11.257087 2.769971 1.308436 10.938670 2.777683 1.291665 7.731781 6.237829 6.703978 -9.247052 -16.165516 12.270068 -168.903679 -72.610296 -12.793416 -14.479276 60.996340 14.269536 -40.906736 -17.673816 1.684414 7.102624 -6.244999 15.617098 163.496955 78.742895 -15.237178 -48.801690 -45.092901 11.275215 -55.760601 17.739523 -2.129847 2.092342 7.970281 -42.811693 
-262.662272 0.000000 -438.472276 180.000000 -88.711492 180.000000 -1.437085 86.670841 0.702867 95.651657 2.861427 -177.012533 152.472960 -3.627658 173.470466 -10.389371 -3.919528 -4.175562 70.189350 1.179755 -6.031853 21.454560 0.003112 0.000016 -163.877578 -9.459319 174.190326 -19.419735 4.438317 2.124449 90.111874 -3.037502 -9.590170 21.454551 -0.003087 0.000002 10.596655 1.260668 0.619412 11.197605 2.455432 1.358303 10.879290 2.463453 1.343428 7.606235 6.229251 6.703068 -9.177135 -15.880334 12.179055 -169.047724 -72.570434 -12.645393 -14.991368 60.533152 13.918547 -40.108652 -17.590063 1.657538 7.255505 -6.172471 15.662694 162.625648 78.828370 -16.118304 -48.309813 -45.614475 11.713942 -55.368653 17.813763 -2.120677 2.420613 8.142484 -41.992690 
-262.645073 0.000000 -436.468877 180.000000 -88.418598 180.000000 -1.334264 86.345299 0.625171 95.720132 2.493388 -177.033870 152.039627 -2.595994 172.049146 -13.727379 -2.619617 -4.212996 69.370071 1.351847 -5.399828 21.454562 0.003111 0.000016 -163.105764 -9.060704 174.806193 -20.766212 4.240426 1.770483 89.712341 -2.818930 -9.475665 21.454551 -0.003083 -0.000001 10.555433 1.078621 0.707809 11.113671 2.084225 1.516241 10.795476 2.093209 1.503606 7.486364 6.148423 6.723122 -9.223263 -15.577901 12.115156 -168.979794 -72.494784 -12.715192 -15.349985 60.071457 13.638598 -39.343620 -17.488121 1.630441 7.489811 -6.135701 15.485729 161.276979 78.895010 -17.484391 -47.587839 -46.357685 11.883727 -54.722269 17.893723 -2.103480 2.721268 8.283333 -40.966275 
-262.646478 0.000000 -434.457935 180.000000 -88.168864 180.000000 -1.167050 86.104704 0.525722 95.799845 2.085169 -177.452788 151.587082 -1.891528 170.907040 -17.447177 -1.612274 -4.033220 69.753591 1.902502 -3.352750 21.454560 0.003111 0.000017 -162.353384 -8.482514 175.388182 -22.157998 3.953237 1.289221 88.606486 -2.546453 -9.202149 21.454549 -0.003083 -0.000003 10.506055 0.854080 0.859214 11.013111 1.622463 1.796016 10.695050 1.633140 1.786176 7.394815 6.056874 6.782155 -9.418438 -15.247062 12.103257 -168.778610 -72.448920 -12.921969 -15.468863 59.698370 13.384041 -38.703340 -17.329015 1.603297 7.909748 -6.122928 15.122544 159.608980 78.887256 -19.177433 -46.511418 -47.270969 11.536565 -53.861776 18.012424 -2.081806 2.882264 8.293351 -39.823482 
